<svg width="235.00000000000006" height="109.96" xmlns="http://www.w3.org/2000/svg" xmlns:svg="http://www.w3.org/2000/svg">
 <defs>
  <style>.cls-1{fill:#fff;}</style>
 </defs>
 <title>atlanta_skyline_from_mlkstation-silo-solid</title>
 <g>
  <title>Layer 1</title>
  <path d="m235.080913,69.836876l0,40.224671l-235.318217,0l0,-46.729085c0.957052,-0.160899 1.574506,0.171169 2.147364,0.992779c0.192096,0.277293 0.595156,0.474137 0.938186,0.561434c0.375618,0.097566 0.795828,0.023964 1.200603,0.023964c1.661978,0 3.270786,-1.562771 3.224477,-3.216262c-0.181806,-6.504415 0.313872,-13.027658 -0.274423,-19.544055c-0.228115,-2.516181 0.183521,-5.088849 0.276139,-7.637552c0.039449,-1.081787 0.044594,-2.168709 0,-3.252207s-0.231545,-2.125916 -0.28643,-3.188875c-0.039449,-0.763413 0.013721,-1.531961 0.048024,-2.298797c0.054885,-1.294036 0.399629,-2.651405 0.11663,-3.864992s-0.010291,-2.25087 0.451084,-3.233379c0.531695,-1.129714 1.135428,-2.194384 1.092549,-3.491844a0.782107,0.78053 0 0 1 0.22983,-0.513506c0.686059,-0.640171 1.27264,-1.30773 1.152579,-2.343301a0.514544,0.513506 0 0 1 0.171515,-0.361166c0.957052,-0.884943 1.118276,-2.031774 1.1663,-3.252207c0.015436,-0.383418 0.18009,-0.876384 0.454514,-1.112597c0.590011,-0.513506 0.723792,-1.131426 0.754665,-1.821236c0.072036,-1.562771 0.096049,-3.130678 0.204103,-4.691737c0.032588,-0.37486 0.310442,-0.727467 0.481957,-1.086922l0.171515,0c0.130351,1.528538 0.219539,3.06221 0.40649,4.582189c0.137212,1.104039 0.193812,2.197808 0.754665,3.262478c1.794044,3.409683 3.450876,6.891256 5.164309,10.343731c0.075466,0.15234 0.198957,0.282429 0.264133,0.438192c0.310442,0.744584 0.775247,1.47034 0.876441,2.244023c0.233259,1.761327 0.29672,3.544906 0.404774,5.321639c0.128635,2.101953 0.281284,4.203906 0.322447,6.309282c0.018866,0.910618 0.387623,1.071517 1.200603,1.057823q3.471459,-0.061621 6.944631,0.015405c0.840422,0.018828 1.680844,0.200268 2.510975,0.357743c0.144073,0.027387 0.325878,0.301257 0.343029,0.477561c0.138927,1.324847 0.298436,2.651405 0.343029,3.981387c0.154363,4.294625 0.262417,8.589251 0.391054,12.883876c0.018866,0.624766 0.044594,1.249532 0.080612,1.874299c0.171515,2.954374 0.384193,5.907036 0.514544,8.863121c0.084043,1.96673 0.030872,1.968441 2.017013,2.01808c0.0566,0 0.133782,-0.022252 0.171515,0c0.217823,0.184862 0.576289,0.357743 0.610592,0.578551c0.089188,0.554587 0.375618,0.597379 0.836992,0.578551c2.401206,-0.10099 4.785261,-0.193421 7.179607,-0.244772c0.46309,-0.01027 0.631174,-0.160899 0.608877,-0.585397c-0.135496,-2.493929 -0.260703,-4.987859 -0.413351,-7.480077c-0.183521,-3.009148 -0.387623,-6.016584 -0.590011,-9.02402c-0.030872,-0.436481 0.149218,-0.604226 0.584865,-0.633325c1.241766,-0.082161 2.478388,-0.239636 3.720155,-0.301257c2.781969,-0.136935 5.567369,-0.296122 8.351052,-0.342337c4.200396,-0.059909 8.404222,-0.051351 12.602903,-0.015405c0.912458,0 1.823201,0.25333 2.744236,0.390265c0.135496,2.966355 0.276139,5.81974 0.394484,8.685106c0.036018,0.883231 0,1.768174 0.020582,2.653117c0.015436,0.583685 0.06346,1.100615 0.874725,0.539182c0.262417,-0.181439 0.722077,-0.061621 1.083973,-0.12153c0.955337,-0.159187 2.058177,0.448462 2.867726,-0.549452c0.06346,-0.078738 0.322447,0 0.492247,0a7.922266,7.906288 0 0 0 1.029089,0.070179c0.734083,-0.046216 1.186882,0.188286 1.289791,0.987644c0.030872,0.248195 0.253842,0.624766 0.452799,0.670982c0.727223,0.171169 1.480172,0.224231 2.284577,0.332068c0,0.3954 -0.013721,0.734314 0,1.071517c0.046309,1.008184 0.449368,1.34881 1.469882,1.20674c0.644896,-0.09072 0.972488,0.095855 0.957052,0.806205c-0.032588,1.48061 -0.051455,2.964644 -0.010291,4.450389c0,0.313239 0.267563,0.864402 0.457945,0.884943c0.686059,0.073603 1.584796,0.213961 2.058177,-0.135223a1.924395,1.920514 0 0 0 0.663762,-1.983847a15.369435,15.338437 0 0 1 -0.428787,-3.180317c-0.041163,-1.564483 0.065175,-3.134101 0.109769,-4.700296c0.06346,-2.194384 0.11663,-4.388768 0.209248,-6.581441c0.012006,-0.29441 0.2264,-0.581974 0.343029,-0.871249c0.150932,0.292699 0.411635,0.576839 0.435648,0.881519c0.121776,1.504574 0.171515,3.012571 0.264133,4.520568c0.089188,1.562771 0.171515,3.127254 0.293291,4.688314c0.017152,0.22252 0.198957,0.434769 0.305297,0.652153a5.762895,5.751272 0 0 1 0.433932,-0.410805a0.970773,0.968815 0 0 1 0.413351,-0.231078c1.523051,-0.210538 3.044386,-0.422787 4.572583,-0.593956c0.672338,-0.075314 1.358397,-0.044504 2.037595,-0.087296c1.289791,-0.080449 2.572721,-0.244772 3.869372,-0.244772c0.747804,0 0.972488,-0.130088 0.934755,-0.936294c-0.128635,-2.675369 -0.145787,-5.355872 -0.2264,-8.034664c-0.017152,-0.568281 0.114915,-0.975662 0.686059,-1.225569c0.202387,-0.089008 0.325878,-0.390265 0.451084,-0.614496c0.171515,-0.290987 0.23669,-0.64873 0.447654,-0.893501c0.569429,-0.660712 1.083973,-1.319711 0.895307,-2.019792c0.514544,-0.573416 0.939901,-0.991067 1.296651,-1.46007a0.883301,0.881519 0 0 1 1.313803,-0.09072c0.23669,0.237925 0.385908,0.561434 0.612308,0.813052c1.157725,1.295748 1.521335,3.166623 3.046102,4.197059a0.258987,0.258465 0 0 1 0.075466,0.147205c0.171515,0.739449 0.46652,1.473763 0.505968,2.225195c0.205818,3.98481 0.343029,7.973043 0.514544,11.959565q0.193812,4.529127 0.401344,9.056542c0.024012,0.513506 0.096049,0.980797 0.905597,0.94314c-0.025727,-0.470714 -0.061746,-0.915753 -0.070321,-1.360792c0,-0.210538 -0.018866,-0.564857 0.080612,-0.609361c0.634605,-0.28414 0.514544,-0.82161 0.514544,-1.318c-0.013721,-1.822948 -0.027442,-3.645896 -0.054885,-5.468843c-0.032588,-2.163574 -0.068606,-4.328859 -0.12349,-6.492433c-0.053169,-2.1088 -0.11663,-4.2176 -0.210963,-6.324688c-0.027442,-0.633325 0.18009,-0.93287 0.82327,-0.819898c1.543632,0.27387 3.104416,0.532335 4.646334,0.855844c1.123422,0.234501 2.229692,0.559722 3.306804,0.835304c0.200673,-0.342337 0.377332,-0.636748 0.574575,-0.970527c1.320664,0.819898 2.62589,1.270073 4.13522,0.910618c0.857574,-0.205403 1.281215,0.220808 1.325809,1.07494c0.114915,2.161862 0.231545,4.323724 0.404774,6.480451c0.11663,1.425836 0.161224,1.422413 1.601948,1.412143c1.029089,0 1.126852,-0.128376 1.123422,-1.116021c-0.012006,-2.163574 -0.099479,-4.303184 0.228115,-6.48901c0.305297,-2.054026 1.372118,-3.231667 2.963775,-4.167961c0.329308,-0.195132 0.99307,-0.148917 1.33953,0.058197c2.332601,1.391603 3.48861,3.496979 3.588088,6.204869c0.010291,0.25333 0.228115,0.706927 0.361896,0.71035c0.547133,0.018828 1.562499,-0.056486 1.574506,-0.171169a4.973927,4.963895 0 0 1 1.258918,-2.867078c0.029158,-0.034234 0,-0.116395 0.013721,-0.171169c0.250411,-0.631613 0.413351,-1.321423 0.780392,-1.882857c0.591726,-0.898636 1.318948,-1.711688 1.941547,-2.495641c0.23669,0.386841 0.788968,0.884943 0.811265,1.405296c0.044594,1.027013 0.620883,1.131426 1.190312,1.121156c0.319017,0.513506 0.581435,0.895213 0.794114,1.299171c0.313872,0.597379 0.569429,1.223857 0.891877,1.816101c0.365326,0.665847 0.848998,1.275208 1.152579,1.965018c0.543702,1.228992 1.953553,0.267023 2.627606,1.104039c0.018866,0.022252 0.198957,-0.070179 0.291575,-0.128376c0.782107,-0.492966 1.807765,-0.364589 2.615599,0.157475c0.331024,0.213961 0.857574,0.191709 1.284646,0.140358c0.096049,-0.011982 0.171515,-0.588821 0.171515,-0.903771c-0.020582,-0.855844 -0.096049,-1.711688 -0.145787,-2.567532c-0.140642,-2.387805 -0.303581,-4.77561 -0.408205,-7.165127c-0.048024,-1.062958 0.430502,-1.540519 1.492179,-1.578176c1.16973,-0.037657 2.342891,-0.027387 3.514337,-0.022252c0.799259,0 1.591657,0.051351 2.294867,-0.475849c0.152648,-0.114683 0.475095,-0.018828 0.715217,0c0.295005,0.032522 0.58658,0.124953 0.881586,0.136935c0.713501,0.029099 1.437294,-0.039369 2.137074,0.065044c0.315588,0.047927 0.790683,0.376571 0.840422,0.643595c0.303581,1.632951 0.560853,3.279595 0.718646,4.931374c0.066891,0.684675 0.291575,0.871249 0.934755,0.855844c2.058177,-0.032522 4.116354,0 6.17453,-0.032522c0.670623,-0.011982 1.082258,0.299545 1.101125,0.895213c0.024012,0.701792 0.324163,0.837015 0.945046,0.855844c1.070253,0.023964 1.454444,0.417652 1.487033,1.484034c0.039449,1.252956 -0.013721,2.511046 0.030872,3.765714c0.036018,1.016743 0.132066,2.035197 0.253842,3.045093c0.061746,0.513506 1.481888,1.210163 1.697996,0.864402c0.615738,-0.979086 1.372118,-0.621343 2.166231,-0.366301c0.181806,0.059909 0.442508,0.128376 0.576289,0.046216c1.330954,-0.816475 2.600163,0.241348 3.907105,0.118107c0.171515,-0.017117 0.492247,0.2636 0.560853,0.467291a8.435095,8.418082 0 0 1 0.418496,1.795561a14.921782,14.891687 0 0 1 0.013721,2.054026c-0.018866,0.559722 0.238406,0.763413 0.771817,0.756566c1.171446,-0.017117 2.344607,0.015405 3.516052,-0.027387c0.313872,-0.011982 0.818125,-0.157475 0.893592,-0.366301c0.305297,-0.828457 0.921035,-0.640171 1.492179,-0.552875c0.667193,0.10099 0.962198,-0.087296 0.914174,-0.804494c-0.020582,-0.306392 0.030872,-0.742873 0.228115,-0.91233c0.416781,-0.352608 2.250274,0.044504 2.680776,0.393688c0.310442,0.251618 0.734083,0.489543 1.118276,0.504948c1.483602,0.059909 2.970635,0.039369 4.459383,0.02054c0.228115,0 0.614022,-0.104413 0.656902,-0.24306c0.221254,-0.701792 0.514544,-1.437818 0.483672,-2.151592c-0.054885,-1.608987 -0.048024,-3.175182 0.893592,-4.570207c0.130351,-0.191709 0.353321,-0.414229 0.550562,-0.433057c0.145787,-0.013693 0.384193,0.251618 0.473381,0.441616c0.590011,1.261514 0.795828,1.403584 2.154225,1.369351a5.762895,5.751272 0 0 1 0.770101,0.01027c0.650041,0.075314 1.101125,-0.140358 1.313803,-0.7908a2.238267,2.233753 0 0 1 0.308727,-0.607649a1.029089,1.027013 0 0 1 0.45966,-0.403958c0.080612,-0.023964 0.272708,0.234501 0.377332,0.388553c0.866149,1.285478 1.387555,2.665098 1.22633,4.253545c-0.020582,0.212249 0.152648,0.445039 0.23669,0.66927a3.785331,3.777696 0 0 0 0.665477,-0.287564a1.804335,1.800696 0 0 0 0.379047,-0.455309c0.559138,-0.766836 0.914174,-0.837015 1.384124,-0.035945s1.070253,1.059535 1.941547,0.867826a2.348037,2.343301 0 0 1 0.686059,0c0.795828,0.066756 1.200603,-0.40567 1.447585,-1.062958c0.049739,-0.130088 0.018866,-0.311527 0.099479,-0.407382a3.773324,3.765714 0 0 1 0.528265,-0.443327a4.267287,4.25868 0 0 1 0.368757,0.494678c0.171515,0.309816 0.332739,0.631613 0.476811,0.956834c0.192096,0.427922 0.440793,0.855844 0.52655,1.300883c0.1132,0.583685 0.034303,1.198182 0.142357,1.785291a2.157656,2.153304 0 0 0 0.514544,1.078363c1.029089,1.035571 2.510975,0.564857 3.72873,1.009896c0.054885,0.02054 0.145787,-0.075314 0.224684,-0.10099a2.673915,2.668522 0 0 1 0.708356,-0.203691c1.085688,-0.022252 2.173092,-0.029099 3.25878,0c0.28986,0 0.674052,0.080449 0.842137,0.272158c0.468235,0.587109 0.897022,0.508371 1.375548,0.085584l-0.000002,-0.000001l0.000002,-0.000002z" id="svg_1" fill="black"/>
 </g>
</svg>