<svg id="Layer_2_Image" data-name="Layer 2 Image" xmlns="http://www.w3.org/2000/svg" viewBox="0 0 1372 642.96"><defs><style>.cls-1{fill:#fff;}</style></defs><title>atlanta_skyline_from_mlkstation-silo-solid</title><path d="M1373,409V644H1V371c5.58-.94,9.18,1,12.52,5.8,1.12,1.62,3.47,2.77,5.47,3.28,2.19.57,4.64.14,7,.14,9.69,0,19.07-9.13,18.8-18.79-1.06-38,1.83-76.11-1.6-114.18-1.33-14.7,1.07-29.73,1.61-44.62.23-6.32.26-12.67,0-19S43.45,171.21,43.13,165c-.23-4.46.08-8.95.28-13.43.32-7.56,2.33-15.49.68-22.58s-.06-13.15,2.63-18.89c3.1-6.6,6.62-12.82,6.37-20.4a4.56,4.56,0,0,1,1.34-3c4-3.74,7.42-7.64,6.72-13.69a3,3,0,0,1,1-2.11c5.58-5.17,6.52-11.87,6.8-19,.09-2.24,1.05-5.12,2.65-6.5,3.44-3,4.22-6.61,4.4-10.64.42-9.13.56-18.29,1.19-27.41C77.38,5.16,79,3.1,80,1h1c.76,8.93,1.28,17.89,2.37,26.77.8,6.45,1.13,12.84,4.4,19.06,10.46,19.92,20.12,40.26,30.11,60.43.44.89,1.16,1.65,1.54,2.56,1.81,4.35,4.52,8.59,5.11,13.11,1.36,10.29,1.73,20.71,2.36,31.09.75,12.28,1.64,24.56,1.88,36.86.11,5.32,2.26,6.26,7,6.18q20.24-.36,40.49.09c4.9.11,9.8,1.17,14.64,2.09.84.16,1.9,1.76,2,2.79.81,7.74,1.74,15.49,2,23.26.9,25.09,1.53,50.18,2.28,75.27.11,3.65.26,7.3.47,10.95,1,17.26,2.24,34.51,3,51.78.49,11.49.18,11.5,11.76,11.79.33,0,.78-.13,1,0,1.27,1.08,3.36,2.09,3.56,3.38.52,3.24,2.19,3.49,4.88,3.38,14-.59,27.9-1.13,41.86-1.43,2.7-.06,3.68-.94,3.55-3.42-.79-14.57-1.52-29.14-2.41-43.7-1.07-17.58-2.26-35.15-3.44-52.72-.18-2.55.87-3.53,3.41-3.7,7.24-.48,14.45-1.4,21.69-1.76,16.22-.8,32.46-1.73,48.69-2,24.49-.35,49-.3,73.48-.09,5.32,0,10.63,1.48,16,2.28.79,17.33,1.61,34,2.3,50.74.21,5.16,0,10.33.12,15.5.09,3.41.37,6.43,5.1,3.15,1.53-1.06,4.21-.36,6.32-.71,5.57-.93,12,2.62,16.72-3.21.37-.46,1.88,0,2.87,0a46.19,46.19,0,0,0,6,.41c4.28-.27,6.92,1.1,7.52,5.77.18,1.45,1.48,3.65,2.64,3.92,4.24,1,8.63,1.31,13.32,1.94,0,2.31-.08,4.29,0,6.26.27,5.89,2.62,7.88,8.57,7.05,3.76-.53,5.67.56,5.58,4.71-.19,8.65-.3,17.32-.06,26,0,1.83,1.56,5.05,2.67,5.17,4,.43,9.24,1.25,12-.79a11.22,11.22,0,0,0,3.87-11.59,89.61,89.61,0,0,1-2.5-18.58c-.24-9.14.38-18.31.64-27.46.37-12.82.68-25.64,1.22-38.45.07-1.72,1.32-3.4,2-5.09.88,1.71,2.4,3.37,2.54,5.15.71,8.79,1,17.6,1.54,26.41.52,9.13,1,18.27,1.71,27.39.1,1.3,1.16,2.54,1.78,3.81a33.6,33.6,0,0,1,2.53-2.4,5.66,5.66,0,0,1,2.41-1.35c8.88-1.23,17.75-2.47,26.66-3.47,3.92-.44,7.92-.26,11.88-.51,7.52-.47,15-1.43,22.56-1.43,4.36,0,5.67-.76,5.45-5.47-.75-15.63-.85-31.29-1.32-46.94-.1-3.32.67-5.7,4-7.16,1.18-.52,1.9-2.28,2.63-3.59,1-1.7,1.38-3.79,2.61-5.22,3.32-3.86,6.32-7.71,5.22-11.8,3-3.35,5.48-5.79,7.56-8.53a5.15,5.15,0,0,1,7.66-.53c1.38,1.39,2.25,3.28,3.57,4.75,6.75,7.57,8.87,18.5,17.76,24.52a1.51,1.51,0,0,1,.44.86c1,4.32,2.72,8.61,2.95,13,1.2,23.28,2,46.58,3,69.87q1.13,26.46,2.34,52.91c.14,3,.56,5.73,5.28,5.51-.15-2.75-.36-5.35-.41-7.95,0-1.23-.11-3.3.47-3.56,3.7-1.66,3-4.8,3-7.7-.08-10.65-.16-21.3-.32-31.95-.19-12.64-.4-25.29-.72-37.93-.31-12.32-.68-24.64-1.23-36.95-.16-3.7,1.05-5.45,4.8-4.79,9,1.6,18.1,3.11,27.09,5,6.55,1.37,13,3.27,19.28,4.88,1.17-2,2.2-3.72,3.35-5.67,7.7,4.79,15.31,7.42,24.11,5.32,5-1.2,7.47,1.29,7.73,6.28.67,12.63,1.35,25.26,2.36,37.86.68,8.33.94,8.31,9.34,8.25,6,0,6.57-.75,6.55-6.52-.07-12.64-.58-25.14,1.33-37.91,1.78-12,8-18.88,17.28-24.35,1.92-1.14,5.79-.87,7.81.34,13.6,8.13,20.34,20.43,20.92,36.25.06,1.48,1.33,4.13,2.11,4.15,3.19.11,9.11-.33,9.18-1a29,29,0,0,1,7.34-16.75c.17-.2,0-.68.08-1,1.46-3.69,2.41-7.72,4.55-11,3.45-5.25,7.69-10,11.32-14.58,1.38,2.26,4.6,5.17,4.73,8.21.26,6,3.62,6.61,6.94,6.55,1.86,3,3.39,5.23,4.63,7.59,1.83,3.49,3.32,7.15,5.2,10.61,2.13,3.89,4.95,7.45,6.72,11.48,3.17,7.18,11.39,1.56,15.32,6.45.11.13,1.16-.41,1.7-.75,4.56-2.88,10.54-2.13,15.25.92,1.93,1.25,5,1.12,7.49.82.56-.07,1-3.44,1-5.28-.12-5-.56-10-.85-15-.82-13.95-1.77-27.9-2.38-41.86-.28-6.21,2.51-9,8.7-9.22,6.82-.22,13.66-.16,20.49-.13,4.66,0,9.28.3,13.38-2.78.89-.67,2.77-.11,4.17,0,1.72.19,3.42.73,5.14.8,4.16.17,8.38-.23,12.46.38,1.84.28,4.61,2.2,4.9,3.76,1.77,9.54,3.27,19.16,4.19,28.81.39,4,1.7,5.09,5.45,5,12-.19,24,0,36-.19,3.91-.07,6.31,1.75,6.42,5.23.14,4.1,1.89,4.89,5.51,5,6.24.14,8.48,2.44,8.67,8.67.23,7.32-.08,14.67.18,22,.21,5.94.77,11.89,1.48,17.79.36,3,8.64,7.07,9.9,5.05,3.59-5.72,8-3.63,12.63-2.14,1.06.35,2.58.75,3.36.27,7.76-4.77,15.16,1.41,22.78.69,1-.1,2.87,1.54,3.27,2.73a49.18,49.18,0,0,1,2.44,10.49,87,87,0,0,1,.08,12c-.11,3.27,1.39,4.46,4.5,4.42,6.83-.1,13.67.09,20.5-.16,1.83-.07,4.77-.92,5.21-2.14,1.78-4.84,5.37-3.74,8.7-3.23,3.89.59,5.61-.51,5.33-4.7-.12-1.79.18-4.34,1.33-5.33,2.43-2.06,13.12.26,15.63,2.3,1.81,1.47,4.28,2.86,6.52,2.95,8.65.35,17.32.23,26,.12,1.33,0,3.58-.61,3.83-1.42,1.29-4.1,3-8.4,2.82-12.57-.32-9.4-.28-18.55,5.21-26.7.76-1.12,2.06-2.42,3.21-2.53.85-.08,2.24,1.47,2.76,2.58,3.44,7.37,4.64,8.2,12.56,8a33.6,33.6,0,0,1,4.49.06c3.79.44,6.42-.82,7.66-4.62a13.05,13.05,0,0,1,1.8-3.55,6,6,0,0,1,2.68-2.36c.47-.14,1.59,1.37,2.2,2.27,5.05,7.51,8.09,15.57,7.15,24.85-.12,1.24.89,2.6,1.38,3.91a22.07,22.07,0,0,0,3.88-1.68,10.52,10.52,0,0,0,2.21-2.66c3.26-4.48,5.33-4.89,8.07-.21s6.24,6.19,11.32,5.07a13.69,13.69,0,0,1,4,0c4.64.39,7-2.37,8.44-6.21.29-.76.11-1.82.58-2.38a22,22,0,0,1,3.08-2.59,24.88,24.88,0,0,1,2.15,2.89c1,1.81,1.94,3.69,2.78,5.59,1.12,2.5,2.57,5,3.07,7.6.66,3.41.2,7,.83,10.43a12.58,12.58,0,0,0,3,6.3c6,6.05,14.64,3.3,21.74,5.9.32.12.85-.44,1.31-.59a15.59,15.59,0,0,1,4.13-1.19c6.33-.13,12.67-.17,19,0,1.69,0,3.93.47,4.91,1.59C1367.71,411.93,1370.21,411.47,1373,409Z" transform="translate(-1 -1)"/><path class="cls-1" d="M80,1c-1,2.1-2.62,4.16-2.77,6.32C76.6,16.44,76.46,25.6,76,34.73c-.18,4-1,7.68-4.4,10.64-1.6,1.38-2.56,4.26-2.65,6.5-.28,7.12-1.22,13.82-6.8,19a3,3,0,0,0-1,2.11c.7,6-2.75,10-6.72,13.69a4.56,4.56,0,0,0-1.34,3c.25,7.58-3.27,13.8-6.37,20.4C44,115.81,42.41,121.74,44.09,129s-.36,15-.68,22.58c-.2,4.48-.51,9-.28,13.43.32,6.24,1.32,12.44,1.61,18.67s.26,12.67,0,19c-.54,14.89-2.94,29.92-1.61,44.62,3.43,38.07.54,76.14,1.6,114.18.27,9.66-9.11,18.78-18.8,18.79-2.33,0-4.78.43-7-.14-2-.51-4.35-1.66-5.47-3.28C10.18,372,6.58,370.06,1,371V1Z" transform="translate(-1 -1)"/></svg>